# xmcd CD database file
#
# Track frame offsets:
#	150
#	8912
#	18165
#	32987
#	47195
#	56075
#	66322
#	77067
#	89652
#	96817
#	105802
#	114917
#	129645
#	142500
#	156497
#	170545
#	181412
#	190947
#	201647
#
# Disc length: 2808 seconds
#
# Revision: 0
# Processed by: cddbd v1.4PL0 Copyright (c) Steve Scherf et al.
# Submitted via: Feurio! 1.66 - http://www.feurio.com
#
DISCID=040af613
DTITLE=Kay STARR - Kay Starr sings standards
DYEAR=1999
DGENRE=Country
TTITLE0=Pretty Baby
TTITLE1=Them there eyes
TTITLE2=I ain't gonna cry
TTITLE3=It happens every spring
TTITLE4=If I could be with you one hour tonight
TTITLE5=So tired
TTITLE6=Mama goes where Papa goes
TTITLE7=Honeysuckle Rose
TTITLE8=The best things in life are free
TTITLE9=You've got to see Mama ev'ry night
TTITLE10=I've got my love to keep me warm
TTITLE11=Should I
TTITLE12=Stars fell on Alabama
TTITLE13=Don't meddle in my mood
TTITLE14=Honey
TTITLE15=I only have eyes for you
TTITLE16=Ain't misbehavin'
TTITLE17=Nevertheless (I'm in love with you)
TTITLE18=It's a good day
EXTD=Compilation
EXTT0=
EXTT1=
EXTT2=
EXTT3=
EXTT4=
EXTT5=
EXTT6=
EXTT7=
EXTT8=
EXTT9=
EXTT10=
EXTT11=
EXTT12=
EXTT13=
EXTT14=
EXTT15=
EXTT16=
EXTT17=
EXTT18=
PLAYORDER=
